# xmcd CD database file
#
# Track frame offsets:
#	150
#	26916
#	47533
#	78198
#	104175
#	129099
#	148328
#	171124
#	200887
#	233539
#
# Disc length: 3460 seconds
#
# Revision: 1
# Processed by: cddbd v1.5.2PL0 Copyright (c) Steve Scherf et al.
# Submitted via: CDex 1.79
#
DISCID=890d820a
DTITLE=Dickbauer Collective - Mosquito Warrior
DYEAR=2014
DGENRE=Jazz
TTITLE0=mosquito warrior
TTITLE1=hear and absorb
TTITLE2=big property man
TTITLE3=schiffbau
TTITLE4=increments of cool
TTITLE5=moenchisch
TTITLE6=damals mit 4
TTITLE7=blue sky intro
TTITLE8=blue sky
TTITLE9=slow burn
EXTD=YEAR: 2014
EXTT0=
EXTT1=
EXTT2=
EXTT3=
EXTT4=
EXTT5=
EXTT6=
EXTT7=
EXTT8=
EXTT9=
PLAYORDER=
